<?xml version="1.0" standalone="no"?>
<!DOCTYPE svg PUBLIC "-//W3C//DTD SVG 1.1//EN" "http://www.w3.org/Graphics/SVG/1.1/DTD/svg11.dtd">
<svg xmlns="http://www.w3.org/2000/svg" xmlns:xlink="http://www.w3.org/1999/xlink" id="Layer_1" data-name="Layer 1" viewBox="0 0 1460.59 449.38" width="1460.5899658203125" height="449.3800048828125">
  <defs>
    <style>
      .cls-1 {
        fill: url(#linear-gradient-4);
      }

      .cls-2 {
        fill: url(#linear-gradient-3);
      }

      .cls-3 {
        fill: url(#linear-gradient-2);
      }

      .cls-4 {
        fill: url(#linear-gradient);
      }

      .cls-5 {
        fill: #ed1c24;
      }

      .cls-6 {
        fill: #fff;
      }
    </style>
    <linearGradient id="linear-gradient" x1="7227.48" y1="3867.73" x2="7433.79" y2="3867.73" gradientTransform="translate(4181.36 -7018.21) rotate(90.3)" gradientUnits="userSpaceOnUse">
      <stop offset="0" stop-color="#ed1c24"/>
      <stop offset="1" stop-color="#000"/>
    </linearGradient>
    <linearGradient id="linear-gradient-2" x1="7802.02" y1="3687.21" x2="7999" y2="3687.21" gradientTransform="translate(5032.71 -6446.11) rotate(101.03) scale(.94)" gradientUnits="userSpaceOnUse">
      <stop offset="0" stop-color="#b2151b"/>
      <stop offset="1" stop-color="#000"/>
    </linearGradient>
    <linearGradient id="linear-gradient-3" x1="8312.54" y1="3267.07" x2="8471.33" y2="3267.07" gradientTransform="translate(5884.06 -5874.02) rotate(112.65) scale(.92)" gradientUnits="userSpaceOnUse">
      <stop offset="0" stop-color="#770e12"/>
      <stop offset="1" stop-color="#000"/>
    </linearGradient>
    <linearGradient id="linear-gradient-4" x1="8627.09" y1="2680.26" x2="8724.55" y2="2680.26" gradientTransform="translate(6735.41 -5301.92) rotate(124.27) scale(.94)" gradientUnits="userSpaceOnUse">
      <stop offset="0" stop-color="#3b0709"/>
      <stop offset="1" stop-color="#000"/>
    </linearGradient>
  </defs>
  <g>
    <polygon class="cls-4" points="176.15 261.35 175.48 394.85 245.77 395.23 245.95 359.78 210.8 359.59 211.48 225.14 341.32 225.84 341.14 262.23 375.35 262.42 375.71 189.62 246.81 188.93 176.52 188.55 176.15 261.35"/>
    <polygon class="cls-3" points="120.52 187.64 120.12 291.12 174.6 291.35 174.71 263.87 147.47 263.76 147.87 159.54 248.51 159.96 248.4 188.17 274.92 188.28 275.14 131.85 175.22 131.44 120.74 131.21 120.52 187.64"/>
    <polygon class="cls-2" points="64.89 113.93 64.76 187.39 103.44 187.47 103.47 167.96 84.13 167.93 84.26 93.94 155.71 94.08 155.67 114.11 174.49 114.14 174.57 74.09 103.64 73.95 64.96 73.88 64.89 113.93"/>
    <polygon class="cls-1" points="9.33 40.3 9.47 83.74 32.34 83.66 32.3 72.13 20.87 72.17 20.72 28.42 62.97 28.27 63.01 40.11 74.14 40.08 74.06 16.39 32.12 16.54 9.25 16.62 9.33 40.3"/>
  </g>
  <path class="cls-6" d="M1411.4,235.32v4.96h-9.59v25.03h-5.95v-25.03h-9.59v-4.96h25.14ZM1443.81,265.3l-1.1-17.64c-.11-2.32-.11-5.18-.22-8.38h-.33c-.77,2.65-1.65,6.17-2.54,8.93l-5.4,16.65h-6.17l-5.4-17.09c-.55-2.32-1.43-5.84-2.1-8.49h-.33c0,2.76-.11,5.62-.22,8.38l-1.1,17.64h-5.73l2.21-29.99h8.93l5.18,14.66c.66,2.32,1.21,4.52,1.98,7.61h.11c.77-2.76,1.43-5.29,2.09-7.5l5.18-14.77h8.6l2.32,29.99h-5.95Z"/>
  <g>
    <path class="cls-6" d="M456.7,373.94v-180.83h25.49l57.95,91.49c13.41,21.2,23.88,40.24,32.46,58.76l.54-.27c-2.15-24.15-2.68-46.15-2.68-74.32v-75.66h22v180.83h-23.61l-57.42-91.76c-12.61-20.12-24.68-40.78-33.81-60.37l-.8.27c1.34,22.81,1.88,44.54,1.88,74.59v77.27h-22Z"/>
    <path class="cls-6" d="M704.33,373.94l-1.88-16.37h-.8c-7.24,10.2-21.2,19.32-39.71,19.32-26.29,0-39.71-18.51-39.71-37.29,0-31.39,27.9-48.56,78.07-48.29v-2.68c0-10.73-2.95-30.05-29.51-30.05-12.07,0-24.68,3.76-33.81,9.66l-5.37-15.56c10.73-6.98,26.29-11.54,42.66-11.54,39.71,0,49.37,27.1,49.37,53.12v48.56c0,11.27.54,22.27,2.15,31.12h-21.46ZM700.84,307.67c-25.76-.54-55,4.02-55,29.24,0,15.29,10.2,22.54,22.27,22.54,16.9,0,27.63-10.73,31.39-21.73.8-2.41,1.34-5.1,1.34-7.51v-22.54Z"/>
    <path class="cls-6" d="M768.72,244.09l25.49,72.98c4.29,11.81,7.78,22.54,10.46,33.27h.8c2.95-10.73,6.71-21.46,11-33.27l25.22-72.98h24.68l-50.98,129.86h-22.54l-49.37-129.86h25.22Z"/>
    <path class="cls-6" d="M983.08,289.16h-70.29v65.2h78.34v19.59h-101.68v-180.83h97.66v19.59h-74.32v57.15h70.29v19.32Z"/>
    <path class="cls-6" d="M1092.54,373.94l-1.88-16.37h-.8c-7.24,10.2-21.2,19.32-39.71,19.32-26.29,0-39.71-18.51-39.71-37.29,0-31.39,27.9-48.56,78.07-48.29v-2.68c0-10.73-2.95-30.05-29.51-30.05-12.07,0-24.68,3.76-33.81,9.66l-5.37-15.56c10.73-6.98,26.29-11.54,42.66-11.54,39.71,0,49.37,27.1,49.37,53.12v48.56c0,11.27.54,22.27,2.15,31.12h-21.46ZM1089.05,307.67c-25.76-.54-55,4.02-55,29.24,0,15.29,10.2,22.54,22.27,22.54,16.9,0,27.63-10.73,31.39-21.73.8-2.41,1.34-5.1,1.34-7.51v-22.54Z"/>
    <path class="cls-6" d="M1135.19,360.26l58.76-76.46c5.63-6.98,11-13.15,16.9-20.12v-.54h-70.29v-19.05h99l-.27,14.76-57.95,75.39c-5.37,7.24-10.73,13.68-16.63,20.39v.54h75.93v18.78h-105.44v-13.68Z"/>
    <path class="cls-6" d="M1276.05,313.31c.54,31.93,20.93,45.07,44.54,45.07,16.9,0,27.1-2.95,35.95-6.71l4.02,16.9c-8.32,3.76-22.54,8.05-43.2,8.05-39.98,0-63.85-26.29-63.85-65.46s23.07-70.03,60.9-70.03c42.39,0,53.66,37.29,53.66,61.17,0,4.83-.54,8.59-.8,11h-91.22ZM1345.27,296.41c.27-15.02-6.17-38.37-32.73-38.37-23.88,0-34.34,22-36.22,38.37h68.95Z"/>
  </g>
  <polygon class="cls-5" points="823.6 412.34 857.82 378.12 839.16 359.46 830.07 368.54 839.4 377.87 804.94 412.34 770.47 377.87 779.8 368.54 770.72 359.46 752.06 378.12 786.28 412.34 804.94 431 823.6 412.34"/>
</svg>