<svg width="402" height="874" viewBox="0 0 402 874" fill="none" xmlns="http://www.w3.org/2000/svg">
<g clip-path="url(#clip0_54691_148)">
<rect width="402" height="874" fill="black"/>
<g clip-path="url(#clip1_54691_148)">
<path d="M382.5 19C383.881 19 385 20.1193 385 21.5V27C385 28.3807 383.881 29.5 382.5 29.5H365.5C364.119 29.5 363 28.3807 363 27V21.5C363 20.1193 364.119 19 365.5 19H382.5ZM366 20C364.895 20 364 20.8954 364 22V26.5C364 27.6046 364.895 28.5 366 28.5H382C383.105 28.5 384 27.6046 384 26.5V22C384 20.8954 383.105 20 382 20H366Z" fill="#ABABAB"/>
<path fill-rule="evenodd" clip-rule="evenodd" d="M386 22.502C386.862 22.7241 387.5 23.505 387.5 24.4365C387.5 25.3682 386.862 26.1488 386 26.3711V22.502Z" fill="#ABABAB"/>
<rect x="365" y="21" width="18" height="6.5" rx="1" fill="white"/>
<path fill-rule="evenodd" clip-rule="evenodd" d="M346.61 19.9448C348.986 19.9449 351.27 20.8544 352.992 22.4853C353.122 22.6112 353.329 22.6096 353.456 22.4817L354.696 21.2355C354.76 21.1707 354.796 21.0828 354.796 20.9914C354.795 20.9 354.758 20.8125 354.693 20.7484C350.174 16.4335 343.046 16.4335 338.527 20.7484C338.462 20.8125 338.424 20.8999 338.424 20.9913C338.423 21.0827 338.459 21.1706 338.524 21.2355L339.763 22.4817C339.891 22.6098 340.098 22.6114 340.228 22.4853C341.95 20.8543 344.235 19.9448 346.61 19.9448ZM346.61 23.9993C347.915 23.9992 349.174 24.4826 350.141 25.3555C350.272 25.4794 350.478 25.4767 350.606 25.3495L351.844 24.1032C351.909 24.0379 351.945 23.9492 351.944 23.857C351.943 23.7649 351.905 23.677 351.839 23.6129C348.893 20.8823 344.33 20.8823 341.384 23.6129C341.318 23.677 341.28 23.7649 341.279 23.8571C341.278 23.9493 341.314 24.038 341.38 24.1032L342.617 25.3495C342.745 25.4767 342.951 25.4794 343.082 25.3555C344.048 24.4832 345.306 23.9998 346.61 23.9993ZM348.989 26.9734C349.055 26.9087 349.092 26.8196 349.09 26.7272C349.088 26.6348 349.048 26.5473 348.979 26.4853C347.612 25.3328 345.609 25.3328 344.242 26.4853C344.173 26.5472 344.133 26.6347 344.131 26.7271C344.129 26.8195 344.165 26.9087 344.231 26.9734L346.373 29.1265C346.435 29.1898 346.521 29.2254 346.61 29.2254C346.7 29.2254 346.785 29.1898 346.848 29.1265L348.989 26.9734Z" fill="white"/>
<path fill-rule="evenodd" clip-rule="evenodd" d="M315.883 24.9923H316.955C317.547 24.9923 318.027 25.4705 318.027 26.0605V28.1969C318.027 28.7868 317.547 29.265 316.955 29.265H315.883C315.29 29.265 314.811 28.7868 314.811 28.1969V26.0605C314.811 25.4705 315.29 24.9923 315.883 24.9923ZM320.885 22.8559H321.957C322.549 22.8559 323.029 23.3342 323.029 23.9241V28.1969C323.029 28.7868 322.549 29.265 321.957 29.265H320.885C320.293 29.265 319.813 28.7868 319.813 28.1969V23.9241C319.813 23.3342 320.293 22.8559 320.885 22.8559ZM325.888 20.3635H326.96C327.552 20.3635 328.032 20.8418 328.032 21.4317V28.1969C328.032 28.7868 327.552 29.265 326.96 29.265H325.888C325.296 29.265 324.816 28.7868 324.816 28.1969V21.4317C324.816 20.8418 325.296 20.3635 325.888 20.3635ZM330.891 17.8711H331.963C332.555 17.8711 333.035 18.3493 333.035 18.9393V28.1969C333.035 28.7868 332.555 29.265 331.963 29.265H330.891C330.298 29.265 329.819 28.7868 329.819 28.1969V18.9393C329.819 18.3493 330.298 17.8711 330.891 17.8711Z" fill="white"/>
<g clip-path="url(#clip2_54691_148)">
<path d="M40.6463 29.2109C43.3343 29.2109 44.931 27.1089 44.931 23.542C44.931 20.041 43.2317 18.1221 40.7049 18.1221C38.4051 18.1221 36.7791 19.6675 36.7791 21.8281C36.7791 23.8569 38.2439 25.3364 40.2581 25.3364C41.4959 25.3364 42.4993 24.7651 42.9974 23.7617H43.1219C43.0999 26.2446 42.2137 27.6655 40.6683 27.6655C39.7601 27.6655 39.035 27.1675 38.8079 26.3618H36.9256C37.2332 28.083 38.7127 29.2109 40.6463 29.2109ZM40.7122 23.8789C39.4817 23.8789 38.6321 23.0146 38.6321 21.7695C38.6321 20.5757 39.5257 19.6602 40.7195 19.6602C41.9134 19.6602 42.8069 20.5903 42.8069 21.8062C42.8069 23.0073 41.9354 23.8789 40.7122 23.8789ZM47.9488 22.1138C48.6446 22.1138 49.1207 21.6304 49.1207 20.9785C49.1207 20.3267 48.6446 19.8433 47.9488 19.8433C47.2604 19.8433 46.777 20.3267 46.777 20.9785C46.777 21.6304 47.2604 22.1138 47.9488 22.1138ZM47.9488 27.4897C48.6446 27.4897 49.1207 26.999 49.1207 26.3545C49.1207 25.7026 48.6446 25.2192 47.9488 25.2192C47.2604 25.2192 46.777 25.7026 46.777 26.3545C46.777 26.999 47.2604 27.4897 47.9488 27.4897ZM56.1229 28.9546H57.932V26.9258H59.3603V25.3657H57.932V18.3857H55.266C53.8305 20.5684 52.329 23 50.9594 25.3804V26.9258H56.1229V28.9546ZM52.7099 25.2998C53.7426 23.5054 54.9657 21.5498 56.0497 19.8945H56.1522V25.4097H52.7099V25.2998ZM63.3889 28.9546H65.2785V18.3857H63.3962L60.635 20.3267V22.1064L63.2644 20.2461H63.3889V28.9546Z" fill="white"/>
</g>
</g>
<g clip-path="url(#clip3_54691_148)">
<rect x="134" y="860" width="134" height="5" rx="2.5" fill="white"/>
</g>
<path d="M201 423L127 482L128.5 531.5L199.5 467L275 531.5V477L201 423Z" stroke="#FF0003"/>
<g filter="url(#filter0_d_54691_148)">
<path d="M200.5 503L151 541.065L152.003 573L199.497 531.387L250 573V537.839L200.5 503Z" stroke="#FF0003" shape-rendering="crispEdges"/>
</g>
<path d="M200.5 561L184 573.507L184.334 584L200.166 570.327L217 584V572.447L200.5 561Z" fill="#FF0003" stroke="#FF0003"/>
</g>
<defs>
<filter id="filter0_d_54691_148" x="146.492" y="502.379" width="108.008" height="79.6943" filterUnits="userSpaceOnUse" color-interpolation-filters="sRGB">
<feFlood flood-opacity="0" result="BackgroundImageFix"/>
<feColorMatrix in="SourceAlpha" type="matrix" values="0 0 0 0 0 0 0 0 0 0 0 0 0 0 0 0 0 0 127 0" result="hardAlpha"/>
<feOffset dy="4"/>
<feGaussianBlur stdDeviation="2"/>
<feComposite in2="hardAlpha" operator="out"/>
<feColorMatrix type="matrix" values="0 0 0 0 0 0 0 0 0 0 0 0 0 0 0 0 0 0 0.25 0"/>
<feBlend mode="normal" in2="BackgroundImageFix" result="effect1_dropShadow_54691_148"/>
<feBlend mode="normal" in="SourceGraphic" in2="effect1_dropShadow_54691_148" result="shape"/>
</filter>
<clipPath id="clip0_54691_148">
<rect width="402" height="874" fill="white"/>
</clipPath>
<clipPath id="clip1_54691_148">
<rect width="402" height="47" fill="white" transform="translate(0 -1)"/>
</clipPath>
<clipPath id="clip2_54691_148">
<rect width="57.888" height="19.2273" fill="white" transform="translate(22.5122 13.9546)"/>
</clipPath>
<clipPath id="clip3_54691_148">
<rect width="402" height="36" fill="white" transform="translate(0 838)"/>
</clipPath>
</defs>
</svg>
